<svg xmlns="http://www.w3.org/2000/svg" viewBox="0 0 30 25" width="25" height="20">
<rect width="100%" height="100%" fill="white"/>
<g id="Layer">		
<path id="Layer" class="shp0" d="M21.87 12.77L23.56 5.33C23.68 4.8 23.28 4.29 22.73 4.29L8.69 4.29L8.36 2.69C8.28 2.29 7.93 2 7.52 2L3.86 2C3.38 2 3 2.38 3 2.86L3 3.43C3 3.9 3.38 4.29 3.86 4.29L6.36 4.29L8.87 16.56C8.26 16.91 7.86 17.55 7.86 18.3C7.86 19.4 8.76 20.3 9.86 20.3C10.97 20.3 11.86 19.4 11.86 18.3C11.86 17.74 11.63 17.23 11.26 16.87L18.75 16.87C18.38 17.23 18.15 17.74 18.15 18.3C18.15 19.4 19.05 20.3 20.15 20.3C21.26 20.3 22.15 19.4 22.15 18.3C22.15 17.5 21.69 16.82 21.03 16.49L21.22 15.63C21.35 15.09 20.94 14.58 20.39 14.58L10.79 14.58L10.56 13.44L21.04 13.44C21.44 13.44 21.78 13.16 21.87 12.77Z" /></g>		
</svg>
