<?xml version="1.0" standalone="no"?>
<!DOCTYPE svg PUBLIC "-//W3C//DTD SVG 20010904//EN"
 "http://www.w3.org/TR/2001/REC-SVG-20010904/DTD/svg10.dtd">
<svg version="1.0" xmlns="http://www.w3.org/2000/svg"
 width="75.000000pt" height="75.000000pt" viewBox="0 0 75.000000 75.000000"
 preserveAspectRatio="xMidYMid meet">
<metadata>

</metadata>
<g transform="translate(0.000000,75.000000) scale(0.100000,-0.100000)"
fill="#0555e6" stroke="none">
<path d="M30 375 l0 -345 130 0 130 0 0 110 0 110 125 0 125 0 0 45 0 45 -125
0 -125 0 0 45 0 45 125 0 125 0 0 45 0 45 -170 0 -170 0 0 -200 0 -200 -38 0
-39 0 -6 97 c-10 151 -8 413 3 413 5 0 14 -9 20 -20 9 -16 21 -20 66 -20 l54
0 -48 63 -49 62 -66 3 -67 3 0 -346z"/>
<path d="M547 658 l-48 -63 48 -3 c39 -3 51 1 64 17 10 12 20 21 23 21 3 0 6
-115 6 -255 l0 -255 -22 0 c-55 0 -68 -10 -68 -51 l0 -39 90 0 90 0 0 223 c0
123 -3 279 -7 345 l-6 122 -61 0 -61 0 -48 -62z"/>
</g>
</svg>
