<svg xmlns="http://www.w3.org/2000/svg" viewBox="0 0 10 8" width="25" height="25">
<rect width="100%" height="100%" fill="#e1e8e8"/>
<g id="Layer">
<path id="Layer" fill-rule="evenodd" class="shp0" d="M7.91 6.52L7.52 6.91C7.39 7.04 7.19 7.04 7.06 6.91L5.69 5.55C5.63 5.48 5.6 5.4 5.6 5.31L5.6 5.09C5.11 5.47 4.51 5.69 3.85 5.69C2.27 5.69 1 4.42 1 2.85C1 1.27 2.27 0 3.85 0C5.42 0 6.69 1.27 6.69 2.85C6.69 3.51 6.47 4.11 6.09 4.6L6.31 4.6C6.4 4.6 6.48 4.63 6.55 4.69L7.91 6.06C8.04 6.19 8.04 6.39 7.91 6.52ZM5.6 2.85C5.6 1.88 4.81 1.09 3.85 1.09C2.88 1.09 2.09 1.88 2.09 2.85C2.09 3.82 2.88 4.6 3.85 4.6C4.82 4.6 5.6 3.81 5.6 2.85Z" />
</g>
</svg>
