<svg version="1.0" xmlns="http://www.w3.org/2000/svg"
 width="19.000000pt" height="19.000000pt" viewBox="0 0 250.000000 250.000000"
 preserveAspectRatio="xMidYMid meet">
<rect width="100%" height="100%" fill="white"/>
<g transform="translate(0.000000,250.000000)scale(0.100000,-0.100000)"
fill="red" stroke="none">
<path d="M1105 2369 c-242 -31 -465 -140 -643 -313 -451 -438 -451 -1164 0
-1602 440 -428 1126 -428 1566 0 451 438 451 1164 0 1602 -248 242 -584 355
-923 313z m-137 -479 c13 -47 26 -92 29 -100 3 -8 17 30 32 85 l26 100 43 3
c23 2 42 1 42 -1 0 -2 -22 -77 -50 -168 -47 -153 -50 -171 -50 -271 l0 -108
-39 0 -39 0 -4 133 c-4 126 -7 138 -51 267 -26 74 -47 138 -47 143 0 4 19 7
43 5 l42 -3 23 -85z m345 -70 c35 -27 47 -76 47 -185 0 -151 -29 -205 -112
-205 -90 0 -108 35 -108 205 0 170 18 204 106 205 27 0 50 -7 67 -20z m177
-150 c0 -157 1 -170 18 -170 38 0 42 19 42 182 l0 158 40 0 40 0 -2 -202 -3
-203 -37 -3 c-33 -3 -38 0 -38 18 l0 21 -29 -22 c-37 -27 -81 -23 -98 11 -9
17 -13 80 -13 203 l0 177 40 0 40 0 0 -170z m129 -310 c177 -16 206 -52 222
-272 10 -143 -2 -382 -21 -433 -14 -37 -46 -72 -83 -91 -82 -43 -902 -43 -984
0 -37 19 -69 54 -83 90 -20 55 -32 287 -21 433 17 217 48 258 209 272 125 12
639 12 761 1z"/>
<path d="M1216 1748 c-10 -38 -7 -208 4 -229 13 -23 46 -25 54 -3 8 20 8 218
0 238 -10 25 -51 20 -58 -6z"/>
<path d="M740 1185 c0 -34 1 -35 40 -35 l40 0 0 -230 0 -230 40 0 40 0 0 230
0 230 45 0 c45 0 45 0 45 35 l0 35 -125 0 -125 0 0 -35z"/>
<path d="M1270 955 l0 -265 35 0 c25 0 35 4 35 16 0 13 5 12 26 -5 34 -27 66
-27 90 0 17 18 19 40 22 168 4 159 -3 195 -42 212 -20 10 -31 8 -60 -9 l-36
-21 0 84 0 85 -35 0 -35 0 0 -265z m140 -69 c0 -101 -3 -126 -16 -137 -11 -9
-20 -10 -32 -2 -26 16 -30 252 -6 270 12 9 22 9 35 2 17 -9 19 -23 19 -133z"/>
<path d="M1600 1073 c-54 -28 -61 -51 -58 -200 3 -123 5 -133 27 -157 67 -71
181 -25 181 74 0 28 -3 30 -34 30 -32 0 -35 -3 -38 -31 -4 -39 -29 -59 -52
-40 -11 9 -16 30 -16 67 l0 54 71 0 71 0 -4 80 c-3 69 -6 83 -28 104 -35 34
-77 40 -120 19z"/>
<path d="M1000 902 c0 -148 3 -181 16 -201 13 -19 22 -22 47 -17 17 4 41 16
54 28 l23 21 0 -21 c0 -18 6 -22 30 -22 l30 0 0 195 0 195 -30 0 -30 0 0 -150
c0 -138 -2 -152 -21 -171 -39 -39 -44 -23 -47 154 l-2 167 -35 0 -35 0 0 -178z"/>
</g>
</svg>
